<?xml version="1.0" encoding="UTF-8" standalone="no"?>
<svg
   xmlns:dc="http://purl.org/dc/elements/1.1/"
   xmlns:cc="http://creativecommons.org/ns#"
   xmlns:rdf="http://www.w3.org/1999/02/22-rdf-syntax-ns#"
   xmlns:svg="http://www.w3.org/2000/svg"
   xmlns="http://www.w3.org/2000/svg"
   xmlns:xlink="http://www.w3.org/1999/xlink"
   version="1.1"
   id="svg2"
   image-rendering="auto"
   stroke-dashoffset="0"
   font-size="12px"
   stroke-linejoin="miter"
   font-style="normal"
   font-family="'Dialog'"
   height="539"
   stroke-width="1"
   font-weight="normal"
   stroke-dasharray="none"
   fill="black"
   stroke-opacity="1"
   shape-rendering="auto"
   stroke-miterlimit="10"
   width="1007"
   stroke-linecap="square"
   stroke="black"
   text-rendering="auto"
   color-interpolation="auto"
   color-rendering="auto"
   fill-opacity="1">
  <metadata
     id="metadata337">
    <rdf:RDF>
      <cc:Work
         rdf:about="">
        <dc:format>image/svg+xml</dc:format>
        <dc:type
           rdf:resource="http://purl.org/dc/dcmitype/StillImage" />
        <dc:title></dc:title>
      </cc:Work>
    </rdf:RDF>
  </metadata>
  <!--Generated by ySVG 2.5-->
  <defs
     id="genericDefs">
    <defs
       id="defs1">
      <clipPath
         clipPathUnits="userSpaceOnUse"
         id="clipPath1">
        <path
           d="M0 0 L1007 0 L1007 539 L0 539 L0 0 Z"
           id="path9" />
      </clipPath>
      <clipPath
         clipPathUnits="userSpaceOnUse"
         id="clipPath2">
        <path
           d="M0 0 L0 17 L702 17 L702 0 Z"
           id="path12" />
      </clipPath>
      <script
         type="text/ecmascript"
         id="script14"><![CDATA[      var SVGDocument = null;
      var SVGRoot = null;
      var TrueCoords = null;
      var lastElement = null;
      var initialized = null;
      var tipGroup;
      function Init(evt)
      {
         SVGDocument = evt.target.ownerDocument;
         SVGRoot = SVGDocument.documentElement;
         TrueCoords = SVGRoot.createSVGPoint();
         initialized = evt;
      };
      function GetTrueCoords(evt)
      {
         var newScale = SVGRoot.currentScale;
         var translation = SVGRoot.currentTranslate;
         TrueCoords.x = (evt.clientX - translation.x)/newScale;
         TrueCoords.y = (evt.clientY - translation.y)/newScale;
      };
      function HideTooltip( evt )
      {
         if(initialized == null) {
           Init(evt);
         }
         if(tipGroup != null) {
           tipGroup.setAttributeNS(null, 'visibility', 'hidden');
         }
      };
      function ShowTooltip( evt )
      {
         if(initialized == null) {
           Init(evt);
         }
         GetTrueCoords( evt );
         var tipScale = 1/SVGRoot.currentScale;
         var targetElement = evt.currentTarget;
         if ( lastElement != targetElement )
         {
            var targetId = targetElement.getAttributeNS(null, 'id');
            var tipId = 'tooltip.' + targetId;
            tipGroup = SVGDocument.getElementById(tipId);
            var xPos = TrueCoords.x + (10 * tipScale);
            var yPos = TrueCoords.y + (10 * tipScale);
            tipGroup.setAttributeNS(null, 'transform', 'translate(' + xPos + ',' + yPos + ') scale(' + tipScale + ')');
            tipGroup.setAttributeNS(null, 'visibility', 'visible');
         }
      };
]]></script>
    </defs>
  </defs>
  <g
     id="y.node.0">
    <g
       id="g17">
      <g
         font-size="18px"
         transform="translate(216,-135)"
         stroke-miterlimit="1.45"
         id="g19"
         style="font-size:18px;font-family:'Open Sans Condensed';fill:#ffffff;stroke:#ffffff;stroke-linecap:butt;stroke-miterlimit:1.45000005;shape-rendering:geometricPrecision;text-rendering:geometricPrecision">
        <text
           x="721.20612"
           xml:space="preserve"
           y="291.00861"
           id="text21"
           style="stroke:none">Difusión</text>
      </g>
    </g>
    <g
       transform="translate(216,-135)"
       stroke-miterlimit="1.45"
       id="g23"
       style="fill:#ffffff;stroke:#ffffff;stroke-linecap:butt;stroke-miterlimit:1.45000005;stroke-dasharray:6, 2;shape-rendering:geometricPrecision;text-rendering:geometricPrecision">
      <rect
         x="494.8363"
         y="265.76941"
         width="290.38641"
         rx="4"
         ry="4"
         height="402.5741"
         id="rect25"
         style="fill:none" />
    </g>
  </g>
  <a
     xlink:href="http://pacd-madrid.github.io/presentacion-pacd"
     id="a4646">
    <g
       onmousemove="ShowTooltip(evt)"
       id="y.node.1"
       onmouseout="HideTooltip(evt)">
      <a
         id="a28"
         xlink:show="new"
         xlink:href="http://pacd-madrid.github.io/presentacion-pacd"
         xlink:type="simple"
         target="_blank">
        <g
           style="fill:#99ccff;stroke:#99ccff;shape-rendering:geometricPrecision;text-rendering:geometricPrecision"
           id="g30"
           transform="translate(216,-135)">
          <rect
             style="stroke:none"
             id="rect32"
             height="38.512699"
             ry="4"
             rx="4"
             width="217.76559"
             y="140.7437"
             x="164.45261" />
        </g>
        <g
           id="g34">
          <g
             style="font-size:18px;font-family:'Open Sans Condensed';stroke-linecap:butt;stroke-miterlimit:1.45000005;shape-rendering:geometricPrecision;text-rendering:geometricPrecision"
             id="g36"
             stroke-miterlimit="1.45"
             transform="translate(216,-135)"
             font-size="18px">
            <text
               style="stroke:none"
               id="text38"
               y="166.98289"
               xml:space="preserve"
               x="171.45261">Creación del grupo promotor</text>
          </g>
        </g>
        <g
           id="g40" />
      </a>
    </g>
  </a>
  <g
     id="y.node.2">
    <g
       transform="translate(216,-135)"
       id="g43"
       style="fill:#99ccff;stroke:#99ccff;shape-rendering:geometricPrecision;text-rendering:geometricPrecision">
      <rect
         x="87.117699"
         y="300.74371"
         width="372.43549"
         rx="4"
         ry="4"
         height="38.512699"
         id="rect45"
         style="stroke:none" />
    </g>
    <g
       id="g47">
      <g
         font-size="18px"
         transform="translate(216,-135)"
         stroke-miterlimit="1.45"
         id="g49"
         style="font-size:18px;font-family:'Open Sans Condensed';stroke-linecap:butt;stroke-miterlimit:1.45000005;shape-rendering:geometricPrecision;text-rendering:geometricPrecision">
        <text
           x="94.117699"
           xml:space="preserve"
           y="326.98291"
           id="text51"
           style="stroke:none">Identificación de casos de presuntas ilegitimidades</text>
      </g>
    </g>
  </g>
  <g
     id="y.node.3">
    <g
       transform="translate(216,-135)"
       id="g54"
       style="fill:#99ccff;stroke:#99ccff;shape-rendering:geometricPrecision;text-rendering:geometricPrecision">
      <rect
         x="134.1436"
         y="220.7437"
         width="278.38379"
         rx="4"
         ry="4"
         height="38.512699"
         id="rect56"
         style="stroke:none" />
    </g>
    <g
       id="g58">
      <g
         font-size="18px"
         transform="translate(216,-135)"
         stroke-miterlimit="1.45"
         id="g60"
         style="font-size:18px;font-family:'Open Sans Condensed';stroke-linecap:butt;stroke-miterlimit:1.45000005;shape-rendering:geometricPrecision;text-rendering:geometricPrecision">
        <text
           x="141.1436"
           xml:space="preserve"
           y="246.98289"
           id="text62"
           style="stroke:none">Definición de criterios de ilegitimidad</text>
      </g>
    </g>
  </g>
  <g
     id="y.node.4">
    <g
       transform="translate(216,-135)"
       id="g65"
       style="fill:#99ccff;stroke:#99ccff;shape-rendering:geometricPrecision;text-rendering:geometricPrecision">
      <rect
         x="168.3418"
         y="380.74371"
         width="209.9873"
         rx="4"
         ry="4"
         height="38.512699"
         id="rect67"
         style="stroke:none" />
    </g>
    <g
       id="g69">
      <g
         font-size="18px"
         transform="translate(216,-135)"
         stroke-miterlimit="1.45"
         id="g71"
         style="font-size:18px;font-family:'Open Sans Condensed';stroke-linecap:butt;stroke-miterlimit:1.45000005;shape-rendering:geometricPrecision;text-rendering:geometricPrecision">
        <text
           x="175.3418"
           xml:space="preserve"
           y="406.98291"
           id="text73"
           style="stroke:none">Selección de casos a auditar</text>
      </g>
    </g>
  </g>
  <g
     id="y.node.5">
    <g
       transform="translate(216,-135)"
       id="g76"
       style="fill:#99ccff;stroke:#99ccff;shape-rendering:geometricPrecision;text-rendering:geometricPrecision">
      <rect
         x="207.752"
         y="460.74371"
         width="131.16701"
         rx="4"
         ry="4"
         height="38.512699"
         id="rect78"
         style="stroke:none" />
    </g>
    <g
       id="g80">
      <g
         font-size="18px"
         transform="translate(216,-135)"
         stroke-miterlimit="1.45"
         id="g82"
         style="font-size:18px;font-family:'Open Sans Condensed';stroke-linecap:butt;stroke-miterlimit:1.45000005;shape-rendering:geometricPrecision;text-rendering:geometricPrecision">
        <text
           x="214.752"
           xml:space="preserve"
           y="486.98291"
           id="text84"
           style="stroke:none">Análisis de casos</text>
      </g>
    </g>
  </g>
  <g
     id="y.node.6">
    <g
       transform="translate(216,-135)"
       id="g87"
       style="fill:#99ccff;stroke:#99ccff;shape-rendering:geometricPrecision;text-rendering:geometricPrecision">
      <rect
         x="-198.28709"
         y="300.74371"
         width="236.5742"
         rx="4"
         ry="4"
         height="38.512699"
         id="rect89"
         style="stroke:none" />
    </g>
    <g
       id="g91">
      <g
         font-size="18px"
         transform="translate(216,-135)"
         stroke-miterlimit="1.45"
         id="g93"
         style="font-size:18px;font-family:'Open Sans Condensed';stroke-linecap:butt;stroke-miterlimit:1.45000005;shape-rendering:geometricPrecision;text-rendering:geometricPrecision">
        <text
           x="-192.28709"
           xml:space="preserve"
           y="325.98291"
           id="text95"
           style="stroke:none">Envío de casos al ayuntamiento</text>
      </g>
    </g>
  </g>
  <g
     id="y.node.7">
    <g
       transform="translate(216,-135)"
       id="g98"
       style="fill:#99ccff;stroke:#99ccff;shape-rendering:geometricPrecision;text-rendering:geometricPrecision">
      <rect
         x="149.2563"
         y="540.74371"
         width="248.1582"
         rx="4"
         ry="4"
         height="38.512699"
         id="rect100"
         style="stroke:none" />
    </g>
    <g
       id="g102">
      <g
         font-size="18px"
         transform="translate(216,-135)"
         stroke-miterlimit="1.45"
         id="g104"
         style="font-size:18px;font-family:'Open Sans Condensed';stroke-linecap:butt;stroke-miterlimit:1.45000005;shape-rendering:geometricPrecision;text-rendering:geometricPrecision">
        <text
           x="156.2563"
           xml:space="preserve"
           y="566.98291"
           id="text106"
           style="stroke:none">Elaboración de informes de casos</text>
      </g>
    </g>
  </g>
  <g
     id="y.node.8">
    <g
       transform="translate(216,-135)"
       id="g109"
       style="fill:#99ccff;stroke:#99ccff;shape-rendering:geometricPrecision;text-rendering:geometricPrecision">
      <rect
         x="80.4468"
         y="620.74371"
         width="385.77731"
         rx="4"
         ry="4"
         height="38.512699"
         id="rect111"
         style="stroke:none" />
    </g>
    <g
       id="g113">
      <g
         font-size="18px"
         transform="translate(216,-135)"
         stroke-miterlimit="1.45"
         id="g115"
         style="font-size:18px;font-family:'Open Sans Condensed';stroke-linecap:butt;stroke-miterlimit:1.45000005;shape-rendering:geometricPrecision;text-rendering:geometricPrecision">
        <text
           x="87.4468"
           xml:space="preserve"
           y="646.98291"
           id="text117"
           style="stroke:none">Elaboración de informe final de auditoría del distrito</text>
      </g>
    </g>
  </g>
  <g
     id="y.node.9">
    <g
       transform="translate(216,-135)"
       id="g120"
       style="fill:#99ccff;stroke:#99ccff;shape-rendering:geometricPrecision;text-rendering:geometricPrecision">
      <rect
         x="-181.8252"
         y="460.74371"
         width="203.65041"
         rx="4"
         ry="4"
         height="38.512699"
         id="rect122"
         style="stroke:none" />
    </g>
    <g
       id="g124">
      <g
         font-size="18px"
         transform="translate(216,-135)"
         stroke-miterlimit="1.45"
         id="g126"
         style="font-size:18px;font-family:'Open Sans Condensed';stroke-linecap:butt;stroke-miterlimit:1.45000005;shape-rendering:geometricPrecision;text-rendering:geometricPrecision">
        <text
           x="-174.8252"
           xml:space="preserve"
           y="486.98291"
           id="text128"
           style="stroke:none">Consultas al Ayuntamiento</text>
      </g>
    </g>
  </g>
  <g
     id="y.node.10">
    <g
       transform="translate(216,-135)"
       id="g131"
       style="fill:#99ccff;stroke:#99ccff;shape-rendering:geometricPrecision;text-rendering:geometricPrecision">
      <rect
         x="-165.5918"
         y="380.74371"
         width="171.18359"
         rx="4"
         ry="4"
         height="38.512699"
         id="rect133"
         style="stroke:none" />
    </g>
    <g
       id="g135">
      <g
         font-size="18px"
         transform="translate(216,-135)"
         stroke-miterlimit="1.45"
         id="g137"
         style="font-size:18px;font-family:'Open Sans Condensed';stroke-linecap:butt;stroke-miterlimit:1.45000005;shape-rendering:geometricPrecision;text-rendering:geometricPrecision">
        <text
           x="-158.5918"
           xml:space="preserve"
           y="406.98291"
           id="text139"
           style="stroke:none">Seguimiento y presión</text>
      </g>
    </g>
  </g>
  <g
     id="y.node.11">
    <g
       transform="translate(216,-135)"
       id="g142"
       style="fill:#99ccff;stroke:#99ccff;shape-rendering:geometricPrecision;text-rendering:geometricPrecision">
      <rect
         x="-210.35451"
         y="620.74371"
         width="260.70901"
         rx="4"
         ry="4"
         height="38.512699"
         id="rect144"
         style="stroke:none" />
    </g>
    <g
       id="g146">
      <g
         font-size="18px"
         transform="translate(216,-135)"
         stroke-miterlimit="1.45"
         id="g148"
         style="font-size:18px;font-family:'Open Sans Condensed';stroke-linecap:butt;stroke-miterlimit:1.45000005;shape-rendering:geometricPrecision;text-rendering:geometricPrecision">
        <text
           x="-203.35451"
           xml:space="preserve"
           y="646.98291"
           id="text150"
           style="stroke:none">Envío del informe al Ayuntamiento</text>
      </g>
    </g>
  </g>
  <g
     id="y.node.12">
    <g
       transform="translate(216,-135)"
       id="g153"
       style="fill:#ff99cc;stroke:#ff99cc;shape-rendering:geometricPrecision;text-rendering:geometricPrecision">
      <rect
         x="514.13672"
         y="300.74371"
         width="251.72659"
         rx="4"
         ry="4"
         height="38.512699"
         id="rect155"
         style="stroke:none" />
    </g>
    <g
       id="g157">
      <g
         font-size="18px"
         transform="translate(216,-135)"
         stroke-miterlimit="1.45"
         id="g159"
         style="font-size:18px;font-family:'Open Sans Condensed';stroke-linecap:butt;stroke-miterlimit:1.45000005;shape-rendering:geometricPrecision;text-rendering:geometricPrecision">
        <text
           x="521.13672"
           xml:space="preserve"
           y="326.98291"
           id="text161"
           style="stroke:none">Publicación de casos identificados</text>
      </g>
    </g>
  </g>
  <g
     id="y.node.13">
    <g
       transform="translate(216,-135)"
       id="g164"
       style="fill:#ff99cc;stroke:#ff99cc;shape-rendering:geometricPrecision;text-rendering:geometricPrecision">
      <rect
         x="543.61078"
         y="460.74371"
         width="192.77831"
         rx="4"
         ry="4"
         height="38.512699"
         id="rect166"
         style="stroke:none" />
    </g>
    <g
       id="g168">
      <g
         font-size="18px"
         transform="translate(216,-135)"
         stroke-miterlimit="1.45"
         id="g170"
         style="font-size:18px;font-family:'Open Sans Condensed';stroke-linecap:butt;stroke-miterlimit:1.45000005;shape-rendering:geometricPrecision;text-rendering:geometricPrecision">
        <text
           x="550.61078"
           xml:space="preserve"
           y="486.98291"
           id="text172"
           style="stroke:none">Publicación de hallazagos</text>
      </g>
    </g>
  </g>
  <g
     id="y.node.14">
    <g
       transform="translate(216,-135)"
       id="g175"
       style="fill:#ff99cc;stroke:#ff99cc;shape-rendering:geometricPrecision;text-rendering:geometricPrecision">
      <rect
         x="515.5166"
         y="540.74371"
         width="248.9668"
         rx="4"
         ry="4"
         height="38.512699"
         id="rect177"
         style="stroke:none" />
    </g>
    <g
       id="g179">
      <g
         font-size="18px"
         transform="translate(216,-135)"
         stroke-miterlimit="1.45"
         id="g181"
         style="font-size:18px;font-family:'Open Sans Condensed';stroke-linecap:butt;stroke-miterlimit:1.45000005;shape-rendering:geometricPrecision;text-rendering:geometricPrecision">
        <text
           x="522.5166"
           xml:space="preserve"
           y="566.98291"
           id="text183"
           style="stroke:none">Publicación de informes parciales</text>
      </g>
    </g>
  </g>
  <g
     id="y.node.15">
    <g
       transform="translate(216,-135)"
       id="g186"
       style="fill:#ff99cc;stroke:#ff99cc;shape-rendering:geometricPrecision;text-rendering:geometricPrecision">
      <rect
         x="508.10739"
         y="620.74371"
         width="263.78519"
         rx="4"
         ry="4"
         height="38.512699"
         id="rect188"
         style="stroke:none" />
    </g>
    <g
       id="g190">
      <g
         font-size="18px"
         transform="translate(216,-135)"
         stroke-miterlimit="1.45"
         id="g192"
         style="font-size:18px;font-family:'Open Sans Condensed';stroke-linecap:butt;stroke-miterlimit:1.45000005;shape-rendering:geometricPrecision;text-rendering:geometricPrecision">
        <text
           x="515.10742"
           xml:space="preserve"
           y="646.98291"
           id="text194"
           style="stroke:none">Publicación de informes del distrito</text>
      </g>
    </g>
  </g>
  <g
     id="y.edge.0">
    <g
       transform="translate(216,-135)"
       stroke-miterlimit="1.45"
       id="g197"
       style="fill:#ffff99;stroke:#ffff99;stroke-linecap:butt;stroke-miterlimit:1.45000005;shape-rendering:geometricPrecision;text-rendering:geometricPrecision">
      <path
         d="m 273.3354,183.2578 0,26.4933"
         id="path199"
         style="fill:none" />
    </g>
    <g
       transform="translate(216,-135)"
       stroke-miterlimit="1.45"
       id="g201"
       style="fill:#ffff99;stroke:#ffff99;stroke-linecap:butt;stroke-miterlimit:1.45000005;shape-rendering:geometricPrecision;text-rendering:geometricPrecision">
      <path
         d="m 273.3354,175.2578 c 2.2092,0 4,1.7909 4,4 0,2.2091 -1.7908,4 -4,4 -2.2091,0 -4,-1.7909 -4,-4 0,-2.2091 1.7909,-4 4,-4 z"
         id="path203"
         style="stroke:none" />
      <path
         d="m 273.3354,220.7511 6,-12 -12,0 z"
         id="path205"
         style="stroke:none" />
    </g>
  </g>
  <g
     id="y.edge.1">
    <g
       transform="translate(216,-135)"
       stroke-miterlimit="1.45"
       id="g208"
       style="fill:#ffff99;stroke:#ffff99;stroke-linecap:butt;stroke-miterlimit:1.45000005;shape-rendering:geometricPrecision;text-rendering:geometricPrecision">
      <path
         d="m 273.3354,263.2578 0,26.4933"
         id="path210"
         style="fill:none" />
      <path
         d="m 273.3354,255.2578 c 2.2092,0 4,1.7909 4,4 0,2.2091 -1.7908,4 -4,4 -2.2091,0 -4,-1.7909 -4,-4 0,-2.2091 1.7909,-4 4,-4 z"
         id="path212"
         style="stroke:none" />
      <path
         d="m 273.3354,300.7511 6,-12 -12,0 z"
         id="path214"
         style="stroke:none" />
    </g>
  </g>
  <g
     id="y.edge.2">
    <g
       transform="translate(216,-135)"
       stroke-miterlimit="1.45"
       id="g217"
       style="fill:#ffff99;stroke:#ffff99;stroke-linecap:butt;stroke-miterlimit:1.45000005;shape-rendering:geometricPrecision;text-rendering:geometricPrecision">
      <path
         d="m 273.3354,343.2578 0,26.4933"
         id="path219"
         style="fill:none" />
      <path
         d="m 273.3354,335.2578 c 2.2092,0 4,1.7909 4,4 0,2.2091 -1.7908,4 -4,4 -2.2091,0 -4,-1.7909 -4,-4 0,-2.2091 1.7909,-4 4,-4 z"
         id="path221"
         style="stroke:none" />
      <path
         d="m 273.3354,380.7511 6,-12 -12,0 z"
         id="path223"
         style="stroke:none" />
    </g>
  </g>
  <g
     id="y.edge.3">
    <g
       transform="translate(216,-135)"
       stroke-miterlimit="1.45"
       id="g226"
       style="fill:#ffff99;stroke:#ffff99;stroke-linecap:butt;stroke-miterlimit:1.45000005;shape-rendering:geometricPrecision;text-rendering:geometricPrecision">
      <path
         d="m 273.3354,423.2578 0,26.4933"
         id="path228"
         style="fill:none" />
      <path
         d="m 273.3354,415.2578 c 2.2092,0 4,1.7909 4,4 0,2.2091 -1.7908,4 -4,4 -2.2091,0 -4,-1.7909 -4,-4 0,-2.2091 1.7909,-4 4,-4 z"
         id="path230"
         style="stroke:none" />
      <path
         d="m 273.3354,460.7511 6,-12 -12,0 z"
         id="path232"
         style="stroke:none" />
    </g>
  </g>
  <g
     id="y.edge.6">
    <g
       transform="translate(216,-135)"
       stroke-miterlimit="1.45"
       id="g235"
       style="fill:#ffff99;stroke:#ffff99;stroke-linecap:butt;stroke-miterlimit:1.45000005;shape-rendering:geometricPrecision;text-rendering:geometricPrecision">
      <path
         d="m 83.1356,320 -33.8431,0"
         id="path237"
         style="fill:none" />
      <path
         d="m 91.1356,320 c 0,2.2091 -1.7909,4 -4,4 -2.2091,0 -4,-1.7909 -4,-4 0,-2.2091 1.7909,-4 4,-4 2.2091,0 4,1.7909 4,4 z"
         id="path239"
         style="stroke:none" />
      <path
         d="m 38.2925,320 12,6 0,-12 z"
         id="path241"
         style="stroke:none" />
    </g>
  </g>
  <g
     id="y.edge.4">
    <g
       transform="translate(216,-135)"
       stroke-miterlimit="1.45"
       id="g244"
       style="fill:#ffff99;stroke:#ffff99;stroke-linecap:butt;stroke-miterlimit:1.45000005;shape-rendering:geometricPrecision;text-rendering:geometricPrecision">
      <path
         d="m 273.3354,503.2578 0,26.4934"
         id="path246"
         style="fill:none" />
      <path
         d="m 273.3354,495.2578 c 2.2092,0 4,1.7909 4,4 0,2.2091 -1.7908,4 -4,4 -2.2091,0 -4,-1.7909 -4,-4 0,-2.2091 1.7909,-4 4,-4 z"
         id="path248"
         style="stroke:none" />
      <path
         d="m 273.3354,540.7512 6,-12 -12,0 z"
         id="path250"
         style="stroke:none" />
    </g>
  </g>
  <g
     id="y.edge.5">
    <g
       transform="translate(216,-135)"
       stroke-miterlimit="1.45"
       id="g253"
       style="fill:#ffff99;stroke:#ffff99;stroke-linecap:butt;stroke-miterlimit:1.45000005;shape-rendering:geometricPrecision;text-rendering:geometricPrecision">
      <path
         d="m 273.3354,583.2578 0,26.4934"
         id="path255"
         style="fill:none" />
      <path
         d="m 273.3354,575.2578 c 2.2092,0 4,1.7908 4,4 0,2.2092 -1.7908,4 -4,4 -2.2091,0 -4,-1.7908 -4,-4 0,-2.2092 1.7909,-4 4,-4 z"
         id="path257"
         style="stroke:none" />
      <path
         d="m 273.3354,620.7512 6,-12 -12,0 z"
         id="path259"
         style="stroke:none" />
    </g>
  </g>
  <g
     id="y.edge.9">
    <g
       transform="translate(216,-135)"
       stroke-miterlimit="1.45"
       id="g262"
       style="fill:#ffff99;stroke:#ffff99;stroke-linecap:butt;stroke-miterlimit:1.45000005;shape-rendering:geometricPrecision;text-rendering:geometricPrecision">
      <path
         d="M 203.732,480 32.8231,480"
         id="path264"
         style="fill:none" />
      <path
         d="m 211.732,480 c 0,2.2091 -1.7908,4 -4,4 -2.2091,0 -4,-1.7909 -4,-4 0,-2.2091 1.7909,-4 4,-4 2.2092,0 4,1.7909 4,4 z"
         id="path266"
         style="stroke:none" />
      <path
         d="m 21.8231,480 12,6 0,-12 z"
         id="path268"
         style="stroke:none" />
    </g>
  </g>
  <g
     id="y.edge.10">
    <g
       transform="translate(216,-135)"
       stroke-miterlimit="1.45"
       id="g271"
       style="fill:#ffff99;stroke:#ffff99;stroke-linecap:butt;stroke-miterlimit:1.45000005;shape-rendering:geometricPrecision;text-rendering:geometricPrecision">
      <path
         d="m -80,343.2578 0,26.4933"
         id="path273"
         style="fill:none" />
      <path
         d="m -80,335.2578 c 2.2091,0 4,1.7909 4,4 0,2.2091 -1.7909,4 -4,4 -2.2091,0 -4,-1.7909 -4,-4 0,-2.2091 1.7909,-4 4,-4 z"
         id="path275"
         style="stroke:none" />
      <path
         d="m -80,380.7511 6,-12 -12,0 z"
         id="path277"
         style="stroke:none" />
    </g>
  </g>
  <g
     id="y.edge.11">
    <g
       transform="translate(216,-135)"
       stroke-miterlimit="1.45"
       id="g280"
       style="fill:#ffff99;stroke:#ffff99;stroke-linecap:butt;stroke-miterlimit:1.45000005;shape-rendering:geometricPrecision;text-rendering:geometricPrecision">
      <path
         d="m 76.4071,640 -15.0372,0"
         id="path282"
         style="fill:none" />
      <path
         d="m 84.4071,640 c 0,2.2092 -1.7909,4 -4,4 -2.2092,0 -4,-1.7908 -4,-4 0,-2.2092 1.7908,-4 4,-4 2.2091,0 4,1.7908 4,4 z"
         id="path284"
         style="stroke:none" />
      <path
         d="m 50.3699,640 12,6 0,-12 z"
         id="path286"
         style="stroke:none" />
    </g>
  </g>
  <g
     id="y.edge.7">
    <g
       transform="translate(216,-135)"
       stroke-miterlimit="1.45"
       id="g289"
       style="fill:#ffff99;stroke:#ffff99;stroke-linecap:butt;stroke-miterlimit:1.45000005;shape-rendering:geometricPrecision;text-rendering:geometricPrecision">
      <path
         d="m 463.5643,320 39.58,0"
         id="path291"
         style="fill:none" />
      <path
         d="m 455.5643,320 c 0,-2.2091 1.7908,-4 4,-4 2.2091,0 4,1.7909 4,4 0,2.2091 -1.7909,4 -4,4 -2.2092,0 -4,-1.7909 -4,-4 z"
         id="path293"
         style="stroke:none" />
      <path
         d="m 514.1443,320 -12,-6 0,12 z"
         id="path295"
         style="stroke:none" />
    </g>
  </g>
  <g
     id="y.edge.8">
    <g
       transform="translate(216,-135)"
       stroke-miterlimit="1.45"
       id="g298"
       style="fill:#ffff99;stroke:#ffff99;stroke-linecap:butt;stroke-miterlimit:1.45000005;shape-rendering:geometricPrecision;text-rendering:geometricPrecision">
      <path
         d="m 342.9207,480 52.8007,0 0,0 136.8733,0"
         id="path300"
         style="fill:none" />
      <path
         d="m 334.9207,480 c 0,-2.2091 1.7909,-4 4,-4 2.2092,0 4,1.7909 4,4 0,2.2091 -1.7908,4 -4,4 -2.2091,0 -4,-1.7909 -4,-4 z"
         id="path302"
         style="stroke:none" />
      <path
         d="m 543.5947,480 -12,-6 0,12 z"
         id="path304"
         style="stroke:none" />
    </g>
  </g>
  <g
     id="y.edge.12">
    <g
       transform="translate(216,-135)"
       stroke-miterlimit="1.45"
       id="g307"
       style="fill:#ffff99;stroke:#ffff99;stroke-linecap:butt;stroke-miterlimit:1.45000005;shape-rendering:geometricPrecision;text-rendering:geometricPrecision">
      <path
         d="m 401.4518,560 103.0468,0"
         id="path309"
         style="fill:none" />
      <path
         d="m 393.4518,560 c 0,-2.2092 1.7908,-4 4,-4 2.2091,0 4,1.7908 4,4 0,2.2092 -1.7909,4 -4,4 -2.2092,0 -4,-1.7908 -4,-4 z"
         id="path311"
         style="stroke:none" />
      <path
         d="m 515.4987,560 -12,-6 0,12 z"
         id="path313"
         style="stroke:none" />
    </g>
  </g>
  <g
     id="y.edge.13">
    <g
       transform="translate(216,-135)"
       stroke-miterlimit="1.45"
       id="g316"
       style="fill:#ffff99;stroke:#ffff99;stroke-linecap:butt;stroke-miterlimit:1.45000005;shape-rendering:geometricPrecision;text-rendering:geometricPrecision">
      <path
         d="m 470.2014,640 26.8797,0"
         id="path318"
         style="fill:none" />
      <path
         d="m 462.2014,640 c 0,-2.2092 1.7908,-4 4,-4 2.2091,0 4,1.7908 4,4 0,2.2092 -1.7909,4 -4,4 -2.2092,0 -4,-1.7908 -4,-4 z"
         id="path320"
         style="stroke:none" />
      <path
         d="m 508.0811,640 -12,-6 0,12 z"
         id="path322"
         style="stroke:none" />
    </g>
  </g>
</svg>
