<?xml version="1.0" encoding="UTF-8"?><svg xmlns="http://www.w3.org/2000/svg" xmlns:xlink="http://www.w3.org/1999/xlink" fill-opacity="1" color-rendering="auto" color-interpolation="auto" text-rendering="auto" stroke="black" stroke-linecap="square" width="841" stroke-miterlimit="10" shape-rendering="auto" stroke-opacity="1" fill="black" stroke-dasharray="none" font-weight="normal" stroke-width="1" height="512" font-family="'Dialog'" font-style="normal" stroke-linejoin="miter" font-size="12px" stroke-dashoffset="0" image-rendering="auto">
  <!--Generated by ySVG 2.5-->
  <defs id="genericDefs"/>
  <g>
    <defs id="defs1">
      <clipPath clipPathUnits="userSpaceOnUse" id="clipPath1">
        <path d="M0 0 L841 0 L841 512 L0 512 L0 0 Z"/>
      </clipPath>
      <clipPath clipPathUnits="userSpaceOnUse" id="clipPath2">
        <path d="M-219 132 L792.8281 132 L792.8281 748 L-219 748 L-219 132 Z"/>
      </clipPath>
    </defs>
    <g id="y.node.0">
      <g>
        <g stroke-linecap="butt" font-size="18px" transform="matrix(0.8312,0,0,0.8312,182.026,-109.7143)" fill="white" text-rendering="geometricPrecision" font-family="'Open Sans Condensed'" shape-rendering="geometricPrecision" stroke="white" stroke-miterlimit="1.45">
          <text x="721.2061" xml:space="preserve" y="291.0086" stroke="none">Difusión</text>
        </g>
      </g>
      <g stroke-linecap="butt" transform="matrix(0.8312,0,0,0.8312,182.026,-109.7143)" fill="white" text-rendering="geometricPrecision" shape-rendering="geometricPrecision" stroke-dasharray="6,2" stroke="white" stroke-miterlimit="1.45">
        <rect x="494.8363" y="265.7694" fill="none" width="290.3864" rx="4" ry="4" height="402.5741"/>
      </g>
    </g>
    <g id="y.node.1">
      <a target="_blank" xlink:type="simple" xlink:href="http://pacd-madrid.github.io/metodologia-distritos/index.html#/slide-4" xlink:show="new">
        <g fill="rgb(153,204,255)" text-rendering="geometricPrecision" shape-rendering="geometricPrecision" transform="matrix(0.8312,0,0,0.8312,182.026,-109.7143)" stroke="rgb(153,204,255)">
          <rect x="164.4526" y="140.7437" clip-path="url(#clipPath2)" width="217.7656" rx="4" ry="4" height="38.5127" stroke="none"/>
        </g>
        <g>
          <g font-size="18px" stroke-linecap="butt" transform="matrix(0.8312,0,0,0.8312,182.026,-109.7143)" text-rendering="geometricPrecision" font-family="'Open Sans Condensed'" shape-rendering="geometricPrecision" stroke-miterlimit="1.45">
            <text x="171.4526" xml:space="preserve" y="166.9829" clip-path="url(#clipPath2)" stroke="none">Creación del grupo promotor</text>
          </g>
        </g>
        <g/>
      </a>
    </g>
    <g id="y.node.2">
      <a target="_blank" xlink:type="simple" xlink:href="http://pacd-madrid.github.io/metodologia-distritos/index.html#/slide-6" xlink:show="new">
        <g fill="rgb(153,204,255)" text-rendering="geometricPrecision" shape-rendering="geometricPrecision" transform="matrix(0.8312,0,0,0.8312,182.026,-109.7143)" stroke="rgb(153,204,255)">
          <rect x="87.1177" y="300.7437" width="372.4355" rx="4" ry="4" height="38.5127" stroke="none"/>
        </g>
        <g>
          <g font-size="18px" stroke-linecap="butt" transform="matrix(0.8312,0,0,0.8312,182.026,-109.7143)" text-rendering="geometricPrecision" font-family="'Open Sans Condensed'" shape-rendering="geometricPrecision" stroke-miterlimit="1.45">
            <text x="94.1177" xml:space="preserve" y="326.9829" stroke="none">Identificación de casos de presuntas ilegitimidades</text>
          </g>
        </g>
      </a>
    </g>
    <g id="y.node.3">
      <a target="_blank" xlink:type="simple" xlink:href="http://pacd-madrid.github.io/metodologia-distritos/index.html#/slide-5" xlink:show="new">
        <g fill="rgb(153,204,255)" text-rendering="geometricPrecision" shape-rendering="geometricPrecision" transform="matrix(0.8312,0,0,0.8312,182.026,-109.7143)" stroke="rgb(153,204,255)">
          <rect x="134.1436" y="220.7437" width="278.3838" rx="4" ry="4" height="38.5127" stroke="none"/>
        </g>
        <g>
          <g font-size="18px" stroke-linecap="butt" transform="matrix(0.8312,0,0,0.8312,182.026,-109.7143)" text-rendering="geometricPrecision" font-family="'Open Sans Condensed'" shape-rendering="geometricPrecision" stroke-miterlimit="1.45">
            <text x="141.1436" xml:space="preserve" y="246.9829" stroke="none">Definición de criterios de ilegitimidad</text>
          </g>
        </g>
      </a>
    </g>
    <g id="y.node.4">
      <a target="_blank" xlink:type="simple" xlink:href="http://pacd-madrid.github.io/metodologia-distritos/index.html#/slide-7" xlink:show="new">
        <g fill="rgb(153,204,255)" text-rendering="geometricPrecision" shape-rendering="geometricPrecision" transform="matrix(0.8312,0,0,0.8312,182.026,-109.7143)" stroke="rgb(153,204,255)">
          <rect x="168.3418" y="380.7437" width="209.9873" rx="4" ry="4" height="38.5127" stroke="none"/>
        </g>
        <g>
          <g font-size="18px" stroke-linecap="butt" transform="matrix(0.8312,0,0,0.8312,182.026,-109.7143)" text-rendering="geometricPrecision" font-family="'Open Sans Condensed'" shape-rendering="geometricPrecision" stroke-miterlimit="1.45">
            <text x="175.3418" xml:space="preserve" y="406.9829" stroke="none">Selección de casos a auditar</text>
          </g>
        </g>
      </a>
    </g>
    <g id="y.node.5">
      <a target="_blank" xlink:type="simple" xlink:href="http://pacd-madrid.github.io/metodologia-distritos/index.html#/slide-8" xlink:show="new">
        <g fill="rgb(153,204,255)" text-rendering="geometricPrecision" shape-rendering="geometricPrecision" transform="matrix(0.8312,0,0,0.8312,182.026,-109.7143)" stroke="rgb(153,204,255)">
          <rect x="207.752" y="460.7437" width="131.167" rx="4" ry="4" height="38.5127" stroke="none"/>
        </g>
        <g>
          <g font-size="18px" stroke-linecap="butt" transform="matrix(0.8312,0,0,0.8312,182.026,-109.7143)" text-rendering="geometricPrecision" font-family="'Open Sans Condensed'" shape-rendering="geometricPrecision" stroke-miterlimit="1.45">
            <text x="214.752" xml:space="preserve" y="486.9829" stroke="none">Análisis de casos</text>
          </g>
        </g>
      </a>
    </g>
    <g id="y.node.6">
      <g fill="rgb(153,204,255)" text-rendering="geometricPrecision" shape-rendering="geometricPrecision" transform="matrix(0.8312,0,0,0.8312,182.026,-109.7143)" stroke="rgb(153,204,255)">
        <rect x="-198.2871" y="300.7437" width="236.5742" rx="4" ry="4" height="38.5127" stroke="none"/>
      </g>
      <g>
        <g font-size="18px" stroke-linecap="butt" transform="matrix(0.8312,0,0,0.8312,182.026,-109.7143)" text-rendering="geometricPrecision" font-family="'Open Sans Condensed'" shape-rendering="geometricPrecision" stroke-miterlimit="1.45">
          <text x="-192.2871" xml:space="preserve" y="325.9829" stroke="none">Envío de casos al ayuntamiento</text>
        </g>
      </g>
    </g>
    <g id="y.node.7">
      <a target="_blank" xlink:type="simple" xlink:href="http://pacd-madrid.github.io/metodologia-distritos/index.html#/slide-9" xlink:show="new">
        <g fill="rgb(153,204,255)" text-rendering="geometricPrecision" shape-rendering="geometricPrecision" transform="matrix(0.8312,0,0,0.8312,182.026,-109.7143)" stroke="rgb(153,204,255)">
          <rect x="149.2563" y="540.7437" width="248.1582" rx="4" ry="4" height="38.5127" stroke="none"/>
        </g>
        <g>
          <g font-size="18px" stroke-linecap="butt" transform="matrix(0.8312,0,0,0.8312,182.026,-109.7143)" text-rendering="geometricPrecision" font-family="'Open Sans Condensed'" shape-rendering="geometricPrecision" stroke-miterlimit="1.45">
            <text x="156.2563" xml:space="preserve" y="566.9829" stroke="none">Elaboración de informes de casos</text>
          </g>
        </g>
      </a>
    </g>
    <g id="y.node.8">
      <a target="_blank" xlink:type="simple" xlink:href="http://pacd-madrid.github.io/metodologia-distritos/index.html#/slide-10" xlink:show="new">
        <g fill="rgb(153,204,255)" text-rendering="geometricPrecision" shape-rendering="geometricPrecision" transform="matrix(0.8312,0,0,0.8312,182.026,-109.7143)" stroke="rgb(153,204,255)">
          <rect x="80.4468" y="620.7437" width="385.7773" rx="4" ry="4" height="38.5127" stroke="none"/>
        </g>
        <g>
          <g font-size="18px" stroke-linecap="butt" transform="matrix(0.8312,0,0,0.8312,182.026,-109.7143)" text-rendering="geometricPrecision" font-family="'Open Sans Condensed'" shape-rendering="geometricPrecision" stroke-miterlimit="1.45">
            <text x="87.4468" xml:space="preserve" y="646.9829" stroke="none">Elaboración de informe final de auditoría del distrito</text>
          </g>
        </g>
      </a>
    </g>
    <g id="y.node.9">
      <g fill="rgb(153,204,255)" text-rendering="geometricPrecision" shape-rendering="geometricPrecision" transform="matrix(0.8312,0,0,0.8312,182.026,-109.7143)" stroke="rgb(153,204,255)">
        <rect x="-181.8252" y="460.7437" width="203.6504" rx="4" ry="4" height="38.5127" stroke="none"/>
      </g>
      <g>
        <g font-size="18px" stroke-linecap="butt" transform="matrix(0.8312,0,0,0.8312,182.026,-109.7143)" text-rendering="geometricPrecision" font-family="'Open Sans Condensed'" shape-rendering="geometricPrecision" stroke-miterlimit="1.45">
          <text x="-174.8252" xml:space="preserve" y="486.9829" stroke="none">Consultas al Ayuntamiento</text>
        </g>
      </g>
    </g>
    <g id="y.node.10">
      <g fill="rgb(153,204,255)" text-rendering="geometricPrecision" shape-rendering="geometricPrecision" transform="matrix(0.8312,0,0,0.8312,182.026,-109.7143)" stroke="rgb(153,204,255)">
        <rect x="-165.5918" y="380.7437" width="171.1836" rx="4" ry="4" height="38.5127" stroke="none"/>
      </g>
      <g>
        <g font-size="18px" stroke-linecap="butt" transform="matrix(0.8312,0,0,0.8312,182.026,-109.7143)" text-rendering="geometricPrecision" font-family="'Open Sans Condensed'" shape-rendering="geometricPrecision" stroke-miterlimit="1.45">
          <text x="-158.5918" xml:space="preserve" y="406.9829" stroke="none">Seguimiento y presión</text>
        </g>
      </g>
    </g>
    <g id="y.node.11">
      <g fill="rgb(153,204,255)" text-rendering="geometricPrecision" shape-rendering="geometricPrecision" transform="matrix(0.8312,0,0,0.8312,182.026,-109.7143)" stroke="rgb(153,204,255)">
        <rect x="-210.3545" y="620.7437" width="260.709" rx="4" ry="4" height="38.5127" stroke="none"/>
      </g>
      <g>
        <g font-size="18px" stroke-linecap="butt" transform="matrix(0.8312,0,0,0.8312,182.026,-109.7143)" text-rendering="geometricPrecision" font-family="'Open Sans Condensed'" shape-rendering="geometricPrecision" stroke-miterlimit="1.45">
          <text x="-203.3545" xml:space="preserve" y="646.9829" stroke="none">Envío del informe al Ayuntamiento</text>
        </g>
      </g>
    </g>
    <g id="y.node.12">
      <g fill="rgb(255,153,204)" text-rendering="geometricPrecision" shape-rendering="geometricPrecision" transform="matrix(0.8312,0,0,0.8312,182.026,-109.7143)" stroke="rgb(255,153,204)">
        <rect x="514.1367" y="300.7437" width="251.7266" rx="4" ry="4" height="38.5127" stroke="none"/>
      </g>
      <g>
        <g font-size="18px" stroke-linecap="butt" transform="matrix(0.8312,0,0,0.8312,182.026,-109.7143)" text-rendering="geometricPrecision" font-family="'Open Sans Condensed'" shape-rendering="geometricPrecision" stroke-miterlimit="1.45">
          <text x="521.1367" xml:space="preserve" y="326.9829" stroke="none">Publicación de casos identificados</text>
        </g>
      </g>
    </g>
    <g id="y.node.13">
      <g fill="rgb(255,153,204)" text-rendering="geometricPrecision" shape-rendering="geometricPrecision" transform="matrix(0.8312,0,0,0.8312,182.026,-109.7143)" stroke="rgb(255,153,204)">
        <rect x="543.6108" y="460.7437" width="192.7783" rx="4" ry="4" height="38.5127" stroke="none"/>
      </g>
      <g>
        <g font-size="18px" stroke-linecap="butt" transform="matrix(0.8312,0,0,0.8312,182.026,-109.7143)" text-rendering="geometricPrecision" font-family="'Open Sans Condensed'" shape-rendering="geometricPrecision" stroke-miterlimit="1.45">
          <text x="550.6108" xml:space="preserve" y="486.9829" stroke="none">Publicación de hallazagos</text>
        </g>
      </g>
    </g>
    <g id="y.node.14">
      <g fill="rgb(255,153,204)" text-rendering="geometricPrecision" shape-rendering="geometricPrecision" transform="matrix(0.8312,0,0,0.8312,182.026,-109.7143)" stroke="rgb(255,153,204)">
        <rect x="515.5166" y="540.7437" width="248.9668" rx="4" ry="4" height="38.5127" stroke="none"/>
      </g>
      <g>
        <g font-size="18px" stroke-linecap="butt" transform="matrix(0.8312,0,0,0.8312,182.026,-109.7143)" text-rendering="geometricPrecision" font-family="'Open Sans Condensed'" shape-rendering="geometricPrecision" stroke-miterlimit="1.45">
          <text x="522.5166" xml:space="preserve" y="566.9829" stroke="none">Publicación de informes parciales</text>
        </g>
      </g>
    </g>
    <g id="y.node.15">
      <g fill="rgb(255,153,204)" text-rendering="geometricPrecision" shape-rendering="geometricPrecision" transform="matrix(0.8312,0,0,0.8312,182.026,-109.7143)" stroke="rgb(255,153,204)">
        <rect x="508.1074" y="620.7437" width="263.7852" rx="4" ry="4" height="38.5127" stroke="none"/>
      </g>
      <g>
        <g font-size="18px" stroke-linecap="butt" transform="matrix(0.8312,0,0,0.8312,182.026,-109.7143)" text-rendering="geometricPrecision" font-family="'Open Sans Condensed'" shape-rendering="geometricPrecision" stroke-miterlimit="1.45">
          <text x="515.1074" xml:space="preserve" y="646.9829" stroke="none">Publicación de informes del distrito</text>
        </g>
      </g>
    </g>
    <g id="y.node.16">
      <g fill="rgb(153,204,255)" text-rendering="geometricPrecision" shape-rendering="geometricPrecision" transform="matrix(0.8312,0,0,0.8312,182.026,-109.7143)" stroke="rgb(153,204,255)">
        <rect x="-171.2739" y="700.7437" width="182.5479" rx="4" ry="4" height="38.5127" stroke="none"/>
      </g>
      <g>
        <g font-size="18px" stroke-linecap="butt" transform="matrix(0.8312,0,0,0.8312,182.026,-109.7143)" text-rendering="geometricPrecision" font-family="'Open Sans Condensed'" shape-rendering="geometricPrecision" stroke-miterlimit="1.45">
          <text x="-164.2739" xml:space="preserve" y="726.9829" stroke="none">Presión para el No Pago</text>
        </g>
      </g>
    </g>
    <g id="y.node.17">
      <a target="_blank" xlink:type="simple" xlink:href="http://pacd-madrid.github.io/metodologia-distritos/index.html#/slide-11" xlink:show="new">
        <g fill="rgb(153,204,255)" text-rendering="geometricPrecision" shape-rendering="geometricPrecision" transform="matrix(0.8312,0,0,0.8312,182.026,-109.7143)" stroke="rgb(153,204,255)">
          <rect x="127.7451" y="700.7437" width="291.1807" rx="4" ry="4" height="38.5127" stroke="none"/>
        </g>
        <g>
          <g font-size="18px" stroke-linecap="butt" transform="matrix(0.8312,0,0,0.8312,182.026,-109.7143)" text-rendering="geometricPrecision" font-family="'Open Sans Condensed'" shape-rendering="geometricPrecision" stroke-miterlimit="1.45">
            <text x="134.7451" xml:space="preserve" y="726.9829" stroke="none">Extensión a otros distritos y municipios</text>
          </g>
        </g>
      </a>
    </g>
    <g id="y.edge.0">
      <g stroke-linecap="butt" transform="matrix(0.8312,0,0,0.8312,182.026,-109.7143)" fill="rgb(255,255,153)" text-rendering="geometricPrecision" shape-rendering="geometricPrecision" stroke="rgb(255,255,153)" stroke-miterlimit="1.45">
        <path fill="none" d="M273.3354 183.2578 L273.3354 209.7511"/>
      </g>
      <g stroke-linecap="butt" transform="matrix(0.8312,0,0,0.8312,182.026,-109.7143)" fill="rgb(255,255,153)" text-rendering="geometricPrecision" shape-rendering="geometricPrecision" stroke="rgb(255,255,153)" stroke-miterlimit="1.45">
        <path d="M273.3354 175.2578 C275.5446 175.2578 277.3354 177.0487 277.3354 179.2578 C277.3354 181.4669 275.5446 183.2578 273.3354 183.2578 C271.1263 183.2578 269.3354 181.4669 269.3354 179.2578 C269.3354 177.0487 271.1263 175.2578 273.3354 175.2578 Z" stroke="none"/>
        <path d="M273.3354 220.7511 L279.3354 208.7511 L267.3354 208.7511 Z" stroke="none"/>
      </g>
    </g>
    <g id="y.edge.1">
      <g stroke-linecap="butt" transform="matrix(0.8312,0,0,0.8312,182.026,-109.7143)" fill="rgb(255,255,153)" text-rendering="geometricPrecision" shape-rendering="geometricPrecision" stroke="rgb(255,255,153)" stroke-miterlimit="1.45">
        <path fill="none" d="M273.3354 263.2578 L273.3354 289.7511"/>
        <path d="M273.3354 255.2578 C275.5446 255.2578 277.3354 257.0487 277.3354 259.2578 C277.3354 261.4669 275.5446 263.2578 273.3354 263.2578 C271.1263 263.2578 269.3354 261.4669 269.3354 259.2578 C269.3354 257.0487 271.1263 255.2578 273.3354 255.2578 Z" stroke="none"/>
        <path d="M273.3354 300.7511 L279.3354 288.7511 L267.3354 288.7511 Z" stroke="none"/>
      </g>
    </g>
    <g id="y.edge.2">
      <g stroke-linecap="butt" transform="matrix(0.8312,0,0,0.8312,182.026,-109.7143)" fill="rgb(255,255,153)" text-rendering="geometricPrecision" shape-rendering="geometricPrecision" stroke="rgb(255,255,153)" stroke-miterlimit="1.45">
        <path fill="none" d="M273.3354 343.2578 L273.3354 369.7511"/>
        <path d="M273.3354 335.2578 C275.5446 335.2578 277.3354 337.0487 277.3354 339.2578 C277.3354 341.4669 275.5446 343.2578 273.3354 343.2578 C271.1263 343.2578 269.3354 341.4669 269.3354 339.2578 C269.3354 337.0487 271.1263 335.2578 273.3354 335.2578 Z" stroke="none"/>
        <path d="M273.3354 380.7511 L279.3354 368.7511 L267.3354 368.7511 Z" stroke="none"/>
      </g>
    </g>
    <g id="y.edge.3">
      <g stroke-linecap="butt" transform="matrix(0.8312,0,0,0.8312,182.026,-109.7143)" fill="rgb(255,255,153)" text-rendering="geometricPrecision" shape-rendering="geometricPrecision" stroke="rgb(255,255,153)" stroke-miterlimit="1.45">
        <path fill="none" d="M273.3354 423.2578 L273.3354 449.7511"/>
        <path d="M273.3354 415.2578 C275.5446 415.2578 277.3354 417.0487 277.3354 419.2578 C277.3354 421.4669 275.5446 423.2578 273.3354 423.2578 C271.1263 423.2578 269.3354 421.4669 269.3354 419.2578 C269.3354 417.0487 271.1263 415.2578 273.3354 415.2578 Z" stroke="none"/>
        <path d="M273.3354 460.7511 L279.3354 448.7511 L267.3354 448.7511 Z" stroke="none"/>
      </g>
    </g>
    <g id="y.edge.6">
      <g stroke-linecap="butt" transform="matrix(0.8312,0,0,0.8312,182.026,-109.7143)" fill="rgb(255,255,153)" text-rendering="geometricPrecision" shape-rendering="geometricPrecision" stroke="rgb(255,255,153)" stroke-miterlimit="1.45">
        <path fill="none" d="M83.1356 320 L49.2925 320"/>
        <path d="M91.1356 320 C91.1356 322.2091 89.3447 324 87.1356 324 C84.9265 324 83.1356 322.2091 83.1356 320 C83.1356 317.7909 84.9265 316 87.1356 316 C89.3447 316 91.1356 317.7909 91.1356 320 Z" stroke="none"/>
        <path d="M38.2925 320 L50.2925 326 L50.2925 314 Z" stroke="none"/>
      </g>
    </g>
    <g id="y.edge.4">
      <g stroke-linecap="butt" transform="matrix(0.8312,0,0,0.8312,182.026,-109.7143)" fill="rgb(255,255,153)" text-rendering="geometricPrecision" shape-rendering="geometricPrecision" stroke="rgb(255,255,153)" stroke-miterlimit="1.45">
        <path fill="none" d="M273.3354 503.2578 L273.3354 529.7512"/>
        <path d="M273.3354 495.2578 C275.5446 495.2578 277.3354 497.0487 277.3354 499.2578 C277.3354 501.4669 275.5446 503.2578 273.3354 503.2578 C271.1263 503.2578 269.3354 501.4669 269.3354 499.2578 C269.3354 497.0487 271.1263 495.2578 273.3354 495.2578 Z" stroke="none"/>
        <path d="M273.3354 540.7512 L279.3354 528.7512 L267.3354 528.7512 Z" stroke="none"/>
      </g>
    </g>
    <g id="y.edge.5">
      <g stroke-linecap="butt" transform="matrix(0.8312,0,0,0.8312,182.026,-109.7143)" fill="rgb(255,255,153)" text-rendering="geometricPrecision" shape-rendering="geometricPrecision" stroke="rgb(255,255,153)" stroke-miterlimit="1.45">
        <path fill="none" d="M273.3354 583.2578 L273.3354 609.7512"/>
        <path d="M273.3354 575.2578 C275.5446 575.2578 277.3354 577.0486 277.3354 579.2578 C277.3354 581.467 275.5446 583.2578 273.3354 583.2578 C271.1263 583.2578 269.3354 581.467 269.3354 579.2578 C269.3354 577.0486 271.1263 575.2578 273.3354 575.2578 Z" stroke="none"/>
        <path d="M273.3354 620.7512 L279.3354 608.7512 L267.3354 608.7512 Z" stroke="none"/>
      </g>
    </g>
    <g id="y.edge.9">
      <g stroke-linecap="butt" transform="matrix(0.8312,0,0,0.8312,182.026,-109.7143)" fill="rgb(255,255,153)" text-rendering="geometricPrecision" shape-rendering="geometricPrecision" stroke="rgb(255,255,153)" stroke-miterlimit="1.45">
        <path fill="none" d="M203.732 480 L32.8231 480"/>
        <path d="M211.732 480 C211.732 482.2091 209.9412 484 207.732 484 C205.5229 484 203.732 482.2091 203.732 480 C203.732 477.7909 205.5229 476 207.732 476 C209.9412 476 211.732 477.7909 211.732 480 Z" stroke="none"/>
        <path d="M21.8231 480 L33.8231 486 L33.8231 474 Z" stroke="none"/>
      </g>
    </g>
    <g id="y.edge.10">
      <g stroke-linecap="butt" transform="matrix(0.8312,0,0,0.8312,182.026,-109.7143)" fill="rgb(255,255,153)" text-rendering="geometricPrecision" shape-rendering="geometricPrecision" stroke="rgb(255,255,153)" stroke-miterlimit="1.45">
        <path fill="none" d="M-80 343.2578 L-80 369.7511"/>
        <path d="M-80 335.2578 C-77.7909 335.2578 -76 337.0487 -76 339.2578 C-76 341.4669 -77.7909 343.2578 -80 343.2578 C-82.2091 343.2578 -84 341.4669 -84 339.2578 C-84 337.0487 -82.2091 335.2578 -80 335.2578 Z" stroke="none"/>
        <path d="M-80 380.7511 L-74 368.7511 L-86 368.7511 Z" stroke="none"/>
      </g>
    </g>
    <g id="y.edge.11">
      <g stroke-linecap="butt" transform="matrix(0.8312,0,0,0.8312,182.026,-109.7143)" fill="rgb(255,255,153)" text-rendering="geometricPrecision" shape-rendering="geometricPrecision" stroke="rgb(255,255,153)" stroke-miterlimit="1.45">
        <path fill="none" d="M76.4071 640 L61.3699 640"/>
        <path d="M84.4071 640 C84.4071 642.2092 82.6162 644 80.4071 644 C78.1979 644 76.4071 642.2092 76.4071 640 C76.4071 637.7908 78.1979 636 80.4071 636 C82.6162 636 84.4071 637.7908 84.4071 640 Z" stroke="none"/>
        <path d="M50.3699 640 L62.3699 646 L62.3699 634 Z" stroke="none"/>
      </g>
    </g>
    <g id="y.edge.7">
      <g stroke-linecap="butt" transform="matrix(0.8312,0,0,0.8312,182.026,-109.7143)" fill="rgb(255,255,153)" text-rendering="geometricPrecision" shape-rendering="geometricPrecision" stroke="rgb(255,255,153)" stroke-miterlimit="1.45">
        <path fill="none" d="M463.5643 320 L503.1443 320"/>
        <path d="M455.5643 320 C455.5643 317.7909 457.3551 316 459.5643 316 C461.7734 316 463.5643 317.7909 463.5643 320 C463.5643 322.2091 461.7734 324 459.5643 324 C457.3551 324 455.5643 322.2091 455.5643 320 Z" stroke="none"/>
        <path d="M514.1443 320 L502.1443 314 L502.1443 326 Z" stroke="none"/>
      </g>
    </g>
    <g id="y.edge.8">
      <g stroke-linecap="butt" transform="matrix(0.8312,0,0,0.8312,182.026,-109.7143)" fill="rgb(255,255,153)" text-rendering="geometricPrecision" shape-rendering="geometricPrecision" stroke="rgb(255,255,153)" stroke-miterlimit="1.45">
        <path fill="none" d="M342.9207 480 L395.7214 480 L395.7214 480 L532.5947 480"/>
        <path d="M334.9207 480 C334.9207 477.7909 336.7116 476 338.9207 476 C341.1299 476 342.9207 477.7909 342.9207 480 C342.9207 482.2091 341.1299 484 338.9207 484 C336.7116 484 334.9207 482.2091 334.9207 480 Z" stroke="none"/>
        <path d="M543.5947 480 L531.5947 474 L531.5947 486 Z" stroke="none"/>
      </g>
    </g>
    <g id="y.edge.12">
      <g stroke-linecap="butt" transform="matrix(0.8312,0,0,0.8312,182.026,-109.7143)" fill="rgb(255,255,153)" text-rendering="geometricPrecision" shape-rendering="geometricPrecision" stroke="rgb(255,255,153)" stroke-miterlimit="1.45">
        <path fill="none" d="M401.4518 560 L504.4986 560"/>
        <path d="M393.4518 560 C393.4518 557.7908 395.2426 556 397.4518 556 C399.6609 556 401.4518 557.7908 401.4518 560 C401.4518 562.2092 399.6609 564 397.4518 564 C395.2426 564 393.4518 562.2092 393.4518 560 Z" stroke="none"/>
        <path d="M515.4987 560 L503.4987 554 L503.4987 566 Z" stroke="none"/>
      </g>
    </g>
    <g id="y.edge.13">
      <g stroke-linecap="butt" transform="matrix(0.8312,0,0,0.8312,182.026,-109.7143)" fill="rgb(255,255,153)" text-rendering="geometricPrecision" shape-rendering="geometricPrecision" stroke="rgb(255,255,153)" stroke-miterlimit="1.45">
        <path fill="none" d="M470.2014 640 L497.0811 640"/>
        <path d="M462.2014 640 C462.2014 637.7908 463.9922 636 466.2014 636 C468.4105 636 470.2014 637.7908 470.2014 640 C470.2014 642.2092 468.4105 644 466.2014 644 C463.9922 644 462.2014 642.2092 462.2014 640 Z" stroke="none"/>
        <path d="M508.0811 640 L496.0811 634 L496.0811 646 Z" stroke="none"/>
      </g>
    </g>
    <g id="y.edge.15">
      <g stroke-linecap="butt" transform="matrix(0.8312,0,0,0.8312,182.026,-109.7143)" fill="rgb(255,255,153)" text-rendering="geometricPrecision" shape-rendering="geometricPrecision" stroke="rgb(255,255,153)" stroke-miterlimit="1.45">
        <path fill="none" d="M-80 663.2578 L-80 689.7512"/>
        <path d="M-80 655.2578 C-77.7909 655.2578 -76 657.0486 -76 659.2578 C-76 661.467 -77.7909 663.2578 -80 663.2578 C-82.2091 663.2578 -84 661.467 -84 659.2578 C-84 657.0486 -82.2091 655.2578 -80 655.2578 Z" stroke="none"/>
        <path d="M-80 700.7512 L-74 688.7512 L-86 688.7512 Z" stroke="none"/>
      </g>
    </g>
    <g id="y.edge.14">
      <g stroke-linecap="butt" transform="matrix(0.8312,0,0,0.8312,182.026,-109.7143)" fill="rgb(255,255,153)" text-rendering="geometricPrecision" shape-rendering="geometricPrecision" stroke="rgb(255,255,153)" stroke-miterlimit="1.45">
        <path fill="none" d="M273.3354 663.2578 L273.3354 689.7512"/>
        <path d="M273.3354 655.2578 C275.5446 655.2578 277.3354 657.0486 277.3354 659.2578 C277.3354 661.467 275.5446 663.2578 273.3354 663.2578 C271.1263 663.2578 269.3354 661.467 269.3354 659.2578 C269.3354 657.0486 271.1263 655.2578 273.3354 655.2578 Z" stroke="none"/>
        <path d="M273.3354 700.7512 L279.3354 688.7512 L267.3354 688.7512 Z" stroke="none"/>
      </g>
    </g>
  </g>
</svg>
