<?xml version="1.0" encoding="UTF-8"?><svg xmlns="http://www.w3.org/2000/svg" xmlns:xlink="http://www.w3.org/1999/xlink" fill-opacity="1" color-rendering="auto" color-interpolation="auto" text-rendering="auto" stroke="black" stroke-linecap="square" width="967" stroke-miterlimit="10" shape-rendering="auto" stroke-opacity="1" fill="black" stroke-dasharray="none" font-weight="normal" stroke-width="1" height="600" font-family="'Dialog'" font-style="normal" stroke-linejoin="miter" font-size="12px" stroke-dashoffset="0" image-rendering="auto">
  <!--Generated by ySVG 2.5-->
  <defs id="genericDefs"/>
  <g>
    <defs id="defs1">
      <clipPath clipPathUnits="userSpaceOnUse" id="clipPath1">
        <path d="M0 0 L967 0 L967 600 L0 600 L0 0 Z"/>
      </clipPath>
    </defs>
    <g id="y.node.0">
      <g>
        <g stroke-linecap="butt" font-size="18px" transform="matrix(0.9554,0,0,0.9554,219.7452,-128.9809)" fill="rgb(255,255,153)" text-rendering="geometricPrecision" font-family="'Open Sans Light'" shape-rendering="geometricPrecision" stroke="rgb(255,255,153)" font-weight="bold" stroke-miterlimit="1.45">
          <text x="-130.3372" xml:space="preserve" y="254.496" stroke="none">Institución</text>
        </g>
      </g>
      <g stroke-linecap="butt" transform="matrix(0.9554,0,0,0.9554,219.7452,-128.9809)" fill="white" text-rendering="geometricPrecision" shape-rendering="geometricPrecision" stroke-dasharray="6,2" stroke="white" stroke-miterlimit="1.45">
        <rect x="-224.1679" y="265.7694" fill="none" width="282.6536" rx="4" ry="4" height="491.5177"/>
      </g>
    </g>
    <g id="y.node.1">
      <g>
        <g stroke-linecap="butt" font-size="18px" transform="matrix(0.9554,0,0,0.9554,219.7452,-128.9809)" fill="rgb(255,255,153)" text-rendering="geometricPrecision" font-family="'Open Sans Light'" shape-rendering="geometricPrecision" stroke="rgb(255,255,153)" font-weight="bold" stroke-miterlimit="1.45">
          <text x="599.3739" xml:space="preserve" y="254.496" stroke="none">Difusión</text>
        </g>
      </g>
      <g stroke-linecap="butt" transform="matrix(0.9554,0,0,0.9554,219.7452,-128.9809)" fill="white" text-rendering="geometricPrecision" shape-rendering="geometricPrecision" stroke-dasharray="6,2" stroke="white" stroke-miterlimit="1.45">
        <rect x="495.2248" y="265.7694" fill="none" width="282.6536" rx="4" ry="4" height="412.8141"/>
      </g>
    </g>
    <g id="y.node.2">
      <a target="_blank" xlink:type="simple" xlink:href="http://pacd-madrid.github.io/metodologia-distritos/index.html#/slide-4" xlink:show="new">
        <g fill="rgb(153,204,255)" text-rendering="geometricPrecision" shape-rendering="geometricPrecision" transform="matrix(0.9554,0,0,0.9554,219.7452,-128.9809)" stroke="rgb(153,204,255)">
          <rect x="174.1948" y="140.7437" width="198.2812" rx="4" ry="4" height="38.5127" stroke="none"/>
        </g>
        <g>
          <g font-size="16px" stroke-linecap="butt" transform="matrix(0.9554,0,0,0.9554,219.7452,-128.9809)" text-rendering="geometricPrecision" font-family="'Open Sans Light'" shape-rendering="geometricPrecision" stroke-miterlimit="1.45">
            <text x="181.1948" xml:space="preserve" y="166.207" stroke="none">Creación grupo promotor</text>
          </g>
        </g>
        <g/>
      </a>
    </g>
    <g id="y.node.3">
      <a target="_blank" xlink:type="simple" xlink:href="http://pacd-madrid.github.io/metodologia-distritos/index.html#/slide-6" xlink:show="new">
        <g fill="rgb(153,204,255)" text-rendering="geometricPrecision" shape-rendering="geometricPrecision" transform="matrix(0.9554,0,0,0.9554,219.7452,-128.9809)" stroke="rgb(153,204,255)">
          <rect x="196.4409" y="300.7437" width="153.7891" rx="4" ry="4" height="38.5127" stroke="none"/>
        </g>
        <g>
          <g font-size="16px" stroke-linecap="butt" transform="matrix(0.9554,0,0,0.9554,219.7452,-128.9809)" text-rendering="geometricPrecision" font-family="'Open Sans Light'" shape-rendering="geometricPrecision" stroke-miterlimit="1.45">
            <text x="203.4409" xml:space="preserve" y="326.207" stroke="none">Identificación casos</text>
          </g>
        </g>
      </a>
    </g>
    <g id="y.node.4">
      <a target="_blank" xlink:type="simple" xlink:href="http://pacd-madrid.github.io/metodologia-distritos/index.html#/slide-5" xlink:show="new">
        <g fill="rgb(153,204,255)" text-rendering="geometricPrecision" shape-rendering="geometricPrecision" transform="matrix(0.9554,0,0,0.9554,219.7452,-128.9809)" stroke="rgb(153,204,255)">
          <rect x="156.1401" y="220.7437" width="234.3906" rx="4" ry="4" height="38.5127" stroke="none"/>
        </g>
        <g>
          <g font-size="16px" stroke-linecap="butt" transform="matrix(0.9554,0,0,0.9554,219.7452,-128.9809)" text-rendering="geometricPrecision" font-family="'Open Sans Light'" shape-rendering="geometricPrecision" stroke-miterlimit="1.45">
            <text x="163.1401" xml:space="preserve" y="246.207" stroke="none">Definición criterios ilegitimidad</text>
          </g>
        </g>
      </a>
    </g>
    <g id="y.node.5">
      <a target="_blank" xlink:type="simple" xlink:href="http://pacd-madrid.github.io/metodologia-distritos/index.html#/slide-7" xlink:show="new">
        <g fill="rgb(153,204,255)" text-rendering="geometricPrecision" shape-rendering="geometricPrecision" transform="matrix(0.9554,0,0,0.9554,219.7452,-128.9809)" stroke="rgb(153,204,255)">
          <rect x="182.6753" y="380.7437" width="181.3203" rx="4" ry="4" height="38.5127" stroke="none"/>
        </g>
        <g>
          <g font-size="16px" stroke-linecap="butt" transform="matrix(0.9554,0,0,0.9554,219.7452,-128.9809)" text-rendering="geometricPrecision" font-family="'Open Sans Light'" shape-rendering="geometricPrecision" stroke-miterlimit="1.45">
            <text x="189.6753" xml:space="preserve" y="406.207" stroke="none">Selección casos auditar</text>
          </g>
        </g>
      </a>
    </g>
    <g id="y.node.6">
      <a target="_blank" xlink:type="simple" xlink:href="http://pacd-madrid.github.io/metodologia-distritos/index.html#/slide-8" xlink:show="new">
        <g fill="rgb(153,204,255)" text-rendering="geometricPrecision" shape-rendering="geometricPrecision" transform="matrix(0.9554,0,0,0.9554,219.7452,-128.9809)" stroke="rgb(153,204,255)">
          <rect x="217.4409" y="460.7437" width="111.7891" rx="4" ry="4" height="38.5127" stroke="none"/>
        </g>
        <g>
          <g font-size="16px" stroke-linecap="butt" transform="matrix(0.9554,0,0,0.9554,219.7452,-128.9809)" text-rendering="geometricPrecision" font-family="'Open Sans Light'" shape-rendering="geometricPrecision" stroke-miterlimit="1.45">
            <text x="224.4409" xml:space="preserve" y="486.207" stroke="none">Análisis casos</text>
          </g>
        </g>
      </a>
    </g>
    <g id="y.node.7">
      <g fill="rgb(102,255,204)" text-rendering="geometricPrecision" shape-rendering="geometricPrecision" transform="matrix(0.9554,0,0,0.9554,219.7452,-128.9809)" stroke="rgb(102,255,204)">
        <rect x="-180.8125" y="300.7437" width="201.625" rx="4" ry="4" height="38.5127" stroke="none"/>
      </g>
      <g>
        <g font-size="16px" stroke-linecap="butt" transform="matrix(0.9554,0,0,0.9554,219.7452,-128.9809)" text-rendering="geometricPrecision" font-family="'Open Sans Light'" shape-rendering="geometricPrecision" stroke-miterlimit="1.45">
          <text x="-173.8125" xml:space="preserve" y="326.207" stroke="none">Envío casos Ayuntamiento</text>
        </g>
      </g>
    </g>
    <g id="y.node.8">
      <a target="_blank" xlink:type="simple" xlink:href="http://pacd-madrid.github.io/metodologia-distritos/index.html#/slide-9" xlink:show="new">
        <g fill="rgb(153,204,255)" text-rendering="geometricPrecision" shape-rendering="geometricPrecision" transform="matrix(0.9554,0,0,0.9554,219.7452,-128.9809)" stroke="rgb(153,204,255)">
          <rect x="175.269" y="540.7437" width="196.1328" rx="4" ry="4" height="38.5127" stroke="none"/>
        </g>
        <g>
          <g font-size="16px" stroke-linecap="butt" transform="matrix(0.9554,0,0,0.9554,219.7452,-128.9809)" text-rendering="geometricPrecision" font-family="'Open Sans Light'" shape-rendering="geometricPrecision" stroke-miterlimit="1.45">
            <text x="182.269" xml:space="preserve" y="566.207" stroke="none">Elaboración informe caso</text>
          </g>
        </g>
      </a>
    </g>
    <g id="y.node.9">
      <a target="_blank" xlink:type="simple" xlink:href="http://pacd-madrid.github.io/metodologia-distritos/index.html#/slide-10" xlink:show="new">
        <g fill="rgb(153,204,255)" text-rendering="geometricPrecision" shape-rendering="geometricPrecision" transform="matrix(0.9554,0,0,0.9554,219.7452,-128.9809)" stroke="rgb(153,204,255)">
          <rect x="166.4565" y="620.7437" width="213.7578" rx="4" ry="4" height="38.5127" stroke="none"/>
        </g>
        <g>
          <g font-size="16px" stroke-linecap="butt" transform="matrix(0.9554,0,0,0.9554,219.7452,-128.9809)" text-rendering="geometricPrecision" font-family="'Open Sans Light'" shape-rendering="geometricPrecision" stroke-miterlimit="1.45">
            <text x="173.4565" xml:space="preserve" y="646.207" stroke="none">Elaboración informe distrito</text>
          </g>
        </g>
      </a>
    </g>
    <g id="y.node.10">
      <g fill="rgb(102,255,204)" text-rendering="geometricPrecision" shape-rendering="geometricPrecision" transform="matrix(0.9554,0,0,0.9554,219.7452,-128.9809)" stroke="rgb(102,255,204)">
        <rect x="-198.6953" y="460.7437" width="237.3906" rx="4" ry="4" height="38.5127" stroke="none"/>
      </g>
      <g>
        <g font-size="16px" stroke-linecap="butt" transform="matrix(0.9554,0,0,0.9554,219.7452,-128.9809)" text-rendering="geometricPrecision" font-family="'Open Sans Light'" shape-rendering="geometricPrecision" stroke-miterlimit="1.45">
          <text x="-191.6953" xml:space="preserve" y="486.207" stroke="none">Consultas Portal Transparencia</text>
        </g>
      </g>
    </g>
    <g id="y.node.11">
      <g fill="rgb(102,255,204)" text-rendering="geometricPrecision" shape-rendering="geometricPrecision" transform="matrix(0.9554,0,0,0.9554,219.7452,-128.9809)" stroke="rgb(102,255,204)">
        <rect x="-169.6848" y="380.7437" width="173.6875" rx="4" ry="4" height="38.5127" stroke="none"/>
      </g>
      <g>
        <g font-size="16px" stroke-linecap="butt" transform="matrix(0.9554,0,0,0.9554,219.7452,-128.9809)" text-rendering="geometricPrecision" font-family="'Open Sans Light'" shape-rendering="geometricPrecision" stroke-miterlimit="1.45">
          <text x="-162.6848" xml:space="preserve" y="406.207" stroke="none">Seguimiento y presión</text>
        </g>
      </g>
    </g>
    <g id="y.node.12">
      <g fill="rgb(102,255,204)" text-rendering="geometricPrecision" shape-rendering="geometricPrecision" transform="matrix(0.9554,0,0,0.9554,219.7452,-128.9809)" stroke="rgb(102,255,204)">
        <rect x="-188.8125" y="620.7437" width="217.625" rx="4" ry="4" height="38.5127" stroke="none"/>
      </g>
      <g>
        <g font-size="16px" stroke-linecap="butt" transform="matrix(0.9554,0,0,0.9554,219.7452,-128.9809)" text-rendering="geometricPrecision" font-family="'Open Sans Light'" shape-rendering="geometricPrecision" stroke-miterlimit="1.45">
          <text x="-181.8125" xml:space="preserve" y="646.207" stroke="none">Envío informe Ayuntamiento</text>
        </g>
      </g>
    </g>
    <g id="y.node.13">
      <g fill="rgb(255,153,204)" text-rendering="geometricPrecision" shape-rendering="geometricPrecision" transform="matrix(0.9554,0,0,0.9554,219.7452,-128.9809)" stroke="rgb(255,153,204)">
        <rect x="522.2422" y="300.7437" width="235.5156" rx="4" ry="4" height="38.5127" stroke="none"/>
      </g>
      <g>
        <g font-size="16px" stroke-linecap="butt" transform="matrix(0.9554,0,0,0.9554,219.7452,-128.9809)" text-rendering="geometricPrecision" font-family="'Open Sans Light'" shape-rendering="geometricPrecision" stroke-miterlimit="1.45">
          <text x="529.2422" xml:space="preserve" y="326.207" stroke="none">Publicación casos identificados</text>
        </g>
      </g>
    </g>
    <g id="y.node.14">
      <g fill="rgb(255,153,204)" text-rendering="geometricPrecision" shape-rendering="geometricPrecision" transform="matrix(0.9554,0,0,0.9554,219.7452,-128.9809)" stroke="rgb(255,153,204)">
        <rect x="552.7539" y="482.0635" width="174.4922" rx="4" ry="4" height="38.5127" stroke="none"/>
      </g>
      <g>
        <g font-size="16px" stroke-linecap="butt" transform="matrix(0.9554,0,0,0.9554,219.7452,-128.9809)" text-rendering="geometricPrecision" font-family="'Open Sans Light'" shape-rendering="geometricPrecision" stroke-miterlimit="1.45">
          <text x="559.7539" xml:space="preserve" y="507.5269" stroke="none">Publicación hallazagos</text>
        </g>
      </g>
    </g>
    <g id="y.node.15">
      <g fill="rgb(255,153,204)" text-rendering="geometricPrecision" shape-rendering="geometricPrecision" transform="matrix(0.9554,0,0,0.9554,219.7452,-128.9809)" stroke="rgb(255,153,204)">
        <rect x="543.3789" y="540.7437" width="193.2422" rx="4" ry="4" height="38.5127" stroke="none"/>
      </g>
      <g>
        <g font-size="16px" stroke-linecap="butt" transform="matrix(0.9554,0,0,0.9554,219.7452,-128.9809)" text-rendering="geometricPrecision" font-family="'Open Sans Light'" shape-rendering="geometricPrecision" stroke-miterlimit="1.45">
          <text x="550.3789" xml:space="preserve" y="566.207" stroke="none">Publicación informe caso</text>
        </g>
      </g>
    </g>
    <g id="y.node.16">
      <g fill="rgb(255,153,204)" text-rendering="geometricPrecision" shape-rendering="geometricPrecision" transform="matrix(0.9554,0,0,0.9554,219.7452,-128.9809)" stroke="rgb(255,153,204)">
        <rect x="534.5664" y="620.7437" width="210.8672" rx="4" ry="4" height="38.5127" stroke="none"/>
      </g>
      <g>
        <g font-size="16px" stroke-linecap="butt" transform="matrix(0.9554,0,0,0.9554,219.7452,-128.9809)" text-rendering="geometricPrecision" font-family="'Open Sans Light'" shape-rendering="geometricPrecision" stroke-miterlimit="1.45">
          <text x="541.5664" xml:space="preserve" y="646.207" stroke="none">Publicación informe distrito</text>
        </g>
      </g>
    </g>
    <g id="y.node.17">
      <g fill="rgb(102,255,204)" text-rendering="geometricPrecision" shape-rendering="geometricPrecision" transform="matrix(0.9554,0,0,0.9554,219.7452,-128.9809)" stroke="rgb(102,255,204)">
        <rect x="-146.5273" y="700.7437" width="133.0547" rx="4" ry="4" height="38.5127" stroke="none"/>
      </g>
      <g>
        <g font-size="16px" stroke-linecap="butt" transform="matrix(0.9554,0,0,0.9554,219.7452,-128.9809)" text-rendering="geometricPrecision" font-family="'Open Sans Light'" shape-rendering="geometricPrecision" stroke-miterlimit="1.45">
          <text x="-139.5273" xml:space="preserve" y="726.207" stroke="none">Presión No Pago</text>
        </g>
      </g>
    </g>
    <g id="y.node.18">
      <a target="_blank" xlink:type="simple" xlink:href="http://pacd-madrid.github.io/metodologia-distritos/index.html#/slide-11" xlink:show="new">
        <g fill="rgb(153,204,255)" text-rendering="geometricPrecision" shape-rendering="geometricPrecision" transform="matrix(0.9554,0,0,0.9554,219.7452,-128.9809)" stroke="rgb(153,204,255)">
          <rect x="153.4058" y="700.7437" width="239.8594" rx="4" ry="4" height="38.5127" stroke="none"/>
        </g>
        <g>
          <g font-size="16px" stroke-linecap="butt" transform="matrix(0.9554,0,0,0.9554,219.7452,-128.9809)" text-rendering="geometricPrecision" font-family="'Open Sans Light'" shape-rendering="geometricPrecision" stroke-miterlimit="1.45">
            <text x="160.4058" xml:space="preserve" y="726.207" stroke="none">Extensión distritos y municipios</text>
          </g>
        </g>
      </a>
    </g>
    <g id="y.node.19">
      <g fill="rgb(255,153,204)" text-rendering="geometricPrecision" shape-rendering="geometricPrecision" transform="matrix(0.9554,0,0,0.9554,219.7452,-128.9809)" stroke="rgb(255,153,204)">
        <rect x="552.7539" y="437.7449" width="174.4922" rx="4" ry="4" height="38.5127" stroke="none"/>
      </g>
      <g>
        <g font-size="16px" stroke-linecap="butt" transform="matrix(0.9554,0,0,0.9554,219.7452,-128.9809)" text-rendering="geometricPrecision" font-family="'Open Sans Light'" shape-rendering="geometricPrecision" stroke-miterlimit="1.45">
          <text x="562.9844" xml:space="preserve" y="463.2083" stroke="none">Publicación consultas</text>
        </g>
      </g>
    </g>
    <g id="y.node.20">
      <g fill="rgb(102,255,204)" text-rendering="geometricPrecision" shape-rendering="geometricPrecision" transform="matrix(0.9554,0,0,0.9554,219.7452,-128.9809)" stroke="rgb(102,255,204)">
        <rect x="-191.6536" y="540.7437" width="217.625" rx="4" ry="4" height="38.5127" stroke="none"/>
      </g>
      <g>
        <g font-size="16px" stroke-linecap="butt" transform="matrix(0.9554,0,0,0.9554,219.7452,-128.9809)" text-rendering="geometricPrecision" font-family="'Open Sans Light'" shape-rendering="geometricPrecision" stroke-miterlimit="1.45">
          <text x="-184.6536" xml:space="preserve" y="566.207" stroke="none">Envío informe Ayuntamiento</text>
        </g>
      </g>
    </g>
    <g id="y.edge.0">
      <g stroke-linecap="butt" transform="matrix(0.9554,0,0,0.9554,219.7452,-128.9809)" fill="rgb(255,255,153)" text-rendering="geometricPrecision" shape-rendering="geometricPrecision" stroke="rgb(255,255,153)" stroke-miterlimit="1.45">
        <path fill="none" d="M273.3354 179.2578 L273.3354 209.7511"/>
      </g>
      <g stroke-linecap="butt" transform="matrix(0.9554,0,0,0.9554,219.7452,-128.9809)" fill="rgb(255,255,153)" text-rendering="geometricPrecision" shape-rendering="geometricPrecision" stroke="rgb(255,255,153)" stroke-miterlimit="1.45">
        <path d="M273.3354 220.7511 L279.3354 208.7511 L267.3354 208.7511 Z" stroke="none"/>
      </g>
    </g>
    <g id="y.edge.1">
      <g stroke-linecap="butt" transform="matrix(0.9554,0,0,0.9554,219.7452,-128.9809)" fill="rgb(255,255,153)" text-rendering="geometricPrecision" shape-rendering="geometricPrecision" stroke="rgb(255,255,153)" stroke-miterlimit="1.45">
        <path fill="none" d="M273.3354 259.2578 L273.3354 289.7511"/>
        <path d="M273.3354 300.7511 L279.3354 288.7511 L267.3354 288.7511 Z" stroke="none"/>
      </g>
    </g>
    <g id="y.edge.2">
      <g stroke-linecap="butt" transform="matrix(0.9554,0,0,0.9554,219.7452,-128.9809)" fill="rgb(255,255,153)" text-rendering="geometricPrecision" shape-rendering="geometricPrecision" stroke="rgb(255,255,153)" stroke-miterlimit="1.45">
        <path fill="none" d="M273.3354 339.2578 L273.3354 369.7511"/>
        <path d="M273.3354 380.7511 L279.3354 368.7511 L267.3354 368.7511 Z" stroke="none"/>
      </g>
    </g>
    <g id="y.edge.3">
      <g stroke-linecap="butt" transform="matrix(0.9554,0,0,0.9554,219.7452,-128.9809)" fill="rgb(255,255,153)" text-rendering="geometricPrecision" shape-rendering="geometricPrecision" stroke="rgb(255,255,153)" stroke-miterlimit="1.45">
        <path fill="none" d="M273.3354 419.2578 L273.3354 449.7511"/>
        <path d="M273.3354 460.7511 L279.3354 448.7511 L267.3354 448.7511 Z" stroke="none"/>
      </g>
    </g>
    <g id="y.edge.6">
      <g stroke-linecap="butt" transform="matrix(0.9554,0,0,0.9554,219.7452,-128.9809)" fill="rgb(255,255,153)" text-rendering="geometricPrecision" shape-rendering="geometricPrecision" stroke="rgb(255,255,153)" stroke-miterlimit="1.45">
        <path fill="none" d="M196.4315 320 L31.7936 320"/>
        <path d="M20.7936 320 L32.7936 326 L32.7936 314 Z" stroke="none"/>
      </g>
    </g>
    <g id="y.edge.4">
      <g stroke-linecap="butt" transform="matrix(0.9554,0,0,0.9554,219.7452,-128.9809)" fill="rgb(255,255,153)" text-rendering="geometricPrecision" shape-rendering="geometricPrecision" stroke="rgb(255,255,153)" stroke-miterlimit="1.45">
        <path fill="none" d="M273.3354 499.2578 L273.3354 529.7512"/>
        <path d="M273.3354 540.7512 L279.3354 528.7512 L267.3354 528.7512 Z" stroke="none"/>
      </g>
    </g>
    <g id="y.edge.17">
      <g stroke-linecap="butt" transform="matrix(0.9554,0,0,0.9554,219.7452,-128.9809)" fill="rgb(255,255,153)" text-rendering="geometricPrecision" shape-rendering="geometricPrecision" stroke="rgb(255,255,153)" stroke-miterlimit="1.45">
        <path fill="none" d="M371.4026 560 L412.3192 560 L412.3192 400 L365.6392 400 L363.9716 400"/>
        <path d="M363.9716 400 L375.9716 406 L375.9716 394 Z" stroke="none"/>
      </g>
    </g>
    <g id="y.edge.5">
      <g stroke-linecap="butt" transform="matrix(0.9554,0,0,0.9554,219.7452,-128.9809)" fill="rgb(255,255,153)" text-rendering="geometricPrecision" shape-rendering="geometricPrecision" stroke="rgb(255,255,153)" stroke-miterlimit="1.45">
        <path fill="none" d="M273.3354 579.2578 L273.3354 609.7512"/>
        <path d="M273.3354 620.7512 L279.3354 608.7512 L267.3354 608.7512 Z" stroke="none"/>
      </g>
    </g>
    <g id="y.edge.9">
      <g stroke-linecap="butt" transform="matrix(0.9554,0,0,0.9554,219.7452,-128.9809)" fill="rgb(255,255,153)" text-rendering="geometricPrecision" shape-rendering="geometricPrecision" stroke="rgb(255,255,153)" stroke-miterlimit="1.45">
        <path fill="none" d="M217.413 471.6256 L49.7001 471.6256"/>
        <path d="M38.7001 471.6256 L50.7001 477.6256 L50.7001 465.6256 Z" stroke="none"/>
      </g>
    </g>
    <g id="y.edge.16">
      <g stroke-linecap="butt" transform="matrix(0.9554,0,0,0.9554,219.7452,-128.9809)" fill="rgb(255,255,153)" text-rendering="geometricPrecision" shape-rendering="geometricPrecision" stroke="rgb(255,255,153)" stroke-miterlimit="1.45">
        <path fill="none" d="M206.4394 486.9915 L38.7238 486.9915"/>
        <path d="M217.4394 486.9915 L205.4394 480.9915 L205.4394 492.9915 Z" stroke="none"/>
      </g>
    </g>
    <g id="y.edge.10">
      <g stroke-linecap="butt" transform="matrix(0.9554,0,0,0.9554,219.7452,-128.9809)" fill="rgb(255,255,153)" text-rendering="geometricPrecision" shape-rendering="geometricPrecision" stroke="rgb(255,255,153)" stroke-miterlimit="1.45">
        <path fill="none" d="M-80 339.2439 L-80 369.7266"/>
        <path d="M-80 380.7266 L-74 368.7266 L-86 368.7266 Z" stroke="none"/>
      </g>
    </g>
    <g id="y.edge.11">
      <g stroke-linecap="butt" transform="matrix(0.9554,0,0,0.9554,219.7452,-128.9809)" fill="rgb(255,255,153)" text-rendering="geometricPrecision" shape-rendering="geometricPrecision" stroke="rgb(255,255,153)" stroke-miterlimit="1.45">
        <path fill="none" d="M166.4981 640 L39.8359 640"/>
        <path d="M28.8359 640 L40.8359 646 L40.8359 634 Z" stroke="none"/>
      </g>
    </g>
    <g id="y.edge.7">
      <g stroke-linecap="butt" transform="matrix(0.9554,0,0,0.9554,219.7452,-128.9809)" fill="rgb(255,255,153)" text-rendering="geometricPrecision" shape-rendering="geometricPrecision" stroke="rgb(255,255,153)" stroke-miterlimit="1.45">
        <path fill="none" d="M350.2151 320 L395.7214 320 L395.7214 320 L511.2441 320"/>
        <path d="M522.2441 320 L510.2441 314 L510.2441 326 Z" stroke="none"/>
      </g>
    </g>
    <g id="y.edge.8">
      <g stroke-linecap="butt" transform="matrix(0.9554,0,0,0.9554,219.7452,-128.9809)" fill="rgb(255,255,153)" text-rendering="geometricPrecision" shape-rendering="geometricPrecision" stroke="rgb(255,255,153)" stroke-miterlimit="1.45">
        <path fill="none" d="M329.2398 480 L395.7214 480 L507.5806 480 L507.5806 503.3678 L541.7455 502.8394"/>
        <path d="M552.7441 502.6693 L540.6528 496.8556 L540.8384 508.8542 Z" stroke="none"/>
      </g>
    </g>
    <g id="y.edge.12">
      <g stroke-linecap="butt" transform="matrix(0.9554,0,0,0.9554,219.7452,-128.9809)" fill="rgb(255,255,153)" text-rendering="geometricPrecision" shape-rendering="geometricPrecision" stroke="rgb(255,255,153)" stroke-miterlimit="1.45">
        <path fill="none" d="M371.4021 560 L532.3743 560"/>
        <path d="M543.3743 560 L531.3743 554 L531.3743 566 Z" stroke="none"/>
      </g>
    </g>
    <g id="y.edge.13">
      <g stroke-linecap="butt" transform="matrix(0.9554,0,0,0.9554,219.7452,-128.9809)" fill="rgb(255,255,153)" text-rendering="geometricPrecision" shape-rendering="geometricPrecision" stroke="rgb(255,255,153)" stroke-miterlimit="1.45">
        <path fill="none" d="M380.1748 640 L523.5412 640"/>
        <path d="M534.5412 640 L522.5412 634 L522.5412 646 Z" stroke="none"/>
      </g>
    </g>
    <g id="y.edge.15">
      <g stroke-linecap="butt" transform="matrix(0.9554,0,0,0.9554,219.7452,-128.9809)" fill="rgb(255,255,153)" text-rendering="geometricPrecision" shape-rendering="geometricPrecision" stroke="rgb(255,255,153)" stroke-miterlimit="1.45">
        <path fill="none" d="M-80 659.2578 L-80 689.7512"/>
        <path d="M-80 700.7512 L-74 688.7512 L-86 688.7512 Z" stroke="none"/>
      </g>
    </g>
    <g id="y.edge.14">
      <g stroke-linecap="butt" transform="matrix(0.9554,0,0,0.9554,219.7452,-128.9809)" fill="rgb(255,255,153)" text-rendering="geometricPrecision" shape-rendering="geometricPrecision" stroke="rgb(255,255,153)" stroke-miterlimit="1.45">
        <path fill="none" d="M273.3354 659.2578 L273.3354 689.7512"/>
        <path d="M273.3354 700.7512 L279.3354 688.7512 L267.3354 688.7512 Z" stroke="none"/>
      </g>
    </g>
    <g id="y.edge.18">
      <g stroke-linecap="butt" transform="matrix(0.9554,0,0,0.9554,219.7452,-128.9809)" fill="rgb(255,255,153)" text-rendering="geometricPrecision" shape-rendering="geometricPrecision" stroke="rgb(255,255,153)" stroke-miterlimit="1.45">
        <path fill="none" d="M329.2375 480 L507.5806 480 L507.5806 457.0013 L541.7442 457.0013"/>
        <path d="M552.7442 457.0013 L540.7442 451.0013 L540.7442 463.0013 Z" stroke="none"/>
      </g>
    </g>
    <g id="y.edge.19">
      <g stroke-linecap="butt" transform="matrix(0.9554,0,0,0.9554,219.7452,-128.9809)" fill="rgb(255,255,153)" text-rendering="geometricPrecision" shape-rendering="geometricPrecision" stroke="rgb(255,255,153)" stroke-miterlimit="1.45">
        <path fill="none" d="M175.2913 560 L36.964 560"/>
        <path d="M25.964 560 L37.964 566 L37.964 554 Z" stroke="none"/>
      </g>
    </g>
  </g>
</svg>
